<svg version="1.1" xmlns="http://www.w3.org/2000/svg" xmlns:xlink="http://www.w3.org/1999/xlink" width="105.94541" height="178.36451" viewBox="0,0,105.94541,178.36451"><g transform="translate(-180.62982,-93.55862)"><g data-paper-data="{&quot;isPaintingLayer&quot;:true}" fill-rule="nonzero" stroke-linejoin="miter" stroke-miterlimit="10" stroke-dasharray="" stroke-dashoffset="0" style="mix-blend-mode: normal"><g stroke="#ffffff" stroke-width="13"><path d="M221.12295,214.83826v-28.83122h40.32281l-2.19943,23.58918l6.04842,11.79459l-11.18041,16.38138l0.54986,13.76036l-10.44727,-13.76036l5.31528,-19.82146l-10.44727,-4.09534l-10.26399,3.93153l3.11585,20.64053l-20.71126,3.11246l8.7977,-5.40585l-5.86514,-10.81171z" fill="#302f53" stroke-linecap="round"/><path d="M218.79114,230.64147c-0.48533,-1.69475 -1.76061,-5.79186 -2.6502,-9.21675c-0.7412,-2.85358 -1.78012,-4.81238 0.94263,-6.23131c1.52408,-0.79426 6.54341,-1.99295 9.41919,-2.89537c2.86889,-0.90026 2.84384,1.39622 3.24824,2.80835c0.53446,1.8663 1.87239,6.90035 3.08793,10.46737c1.61097,4.72739 -0.08852,4.82376 -1.12917,5.13518c-1.26197,0.37765 -4.50197,1.50746 -7.24983,2.23793c-2.39153,0.63574 -4.49105,1.8072 -5.66879,-2.30539z" fill="#efe8d5" stroke-linecap="butt"/><path d="M244.06782,216.13953c0.85519,-1.54155 2.85052,-5.3404 4.64325,-8.39121c1.49368,-2.5419 2.14413,-4.6616 5.07274,-3.73966c1.63931,0.51606 6.03612,3.21766 8.70771,4.61304c2.66519,1.39203 1.02362,2.99818 0.31105,4.28265c-0.94176,1.6976 -3.55531,6.20326 -5.21805,9.58505c-2.20365,4.4819 -3.4735,3.34832 -4.42956,2.83268c-1.15939,-0.62531 -4.24931,-2.11744 -6.70885,-3.54395c-2.1406,-1.24153 -4.45354,-1.89777 -2.37828,-5.6386z" fill="#efe8d5" stroke-linecap="butt"/><path d="M224.2208,175.74755c0,0 0.23684,25.62717 3.29914,30.05882c2.36243,3.41882 3.94708,4.09625 4.94871,8.7977c0.93711,4.3986 -2.37662,5.81219 -8.7977,5.13199c-8.6355,-0.91479 -16.01664,6.08376 -16.86226,-8.24785c-0.53215,-9.01903 1.69571,-21.32448 4.72131,-29.69268c2.00114,-5.53474 5.17611,-9.34713 5.17611,-9.34713z" fill="#273b5e" stroke-linecap="round"/><path d="M263.63119,165.86368c0,0 7.24777,3.92708 8.12934,10.39939c1.10453,8.10924 1.99795,19.06308 0.41732,27.25975c-2.71839,14.09683 -9.11764,6.19047 -17.79853,5.9645c-6.45482,-0.16802 -9.55448,-2.00411 -8.04844,-6.24176c1.60973,-4.52942 3.26956,-4.99312 6.06006,-8.07248c3.6172,-3.99163 7.21388,-29.36626 7.21388,-29.36626z" data-paper-data="{&quot;index&quot;:null}" fill="#273b5e" stroke-linecap="round"/><path d="M199.22722,136.95287c-1.20637,-3.93658 -0.50945,-8.90114 8.726,-10.21359c4.75937,-0.67636 6.35938,5.0572 10.23334,3.76079c0.87039,-0.29127 -5.50667,-12.08682 9.28987,-19.63418c5.3559,-2.73192 23.87065,-2.38412 23.87065,-2.38412c0,0 5.65273,1.57198 7.60974,5.8763c1.82533,4.0147 1.99026,13.33294 4.3952,14.37211c3.53033,1.52545 9.20516,-7.38188 15.85445,-4.66914c2.76686,1.12881 2.1956,5.49994 1.16874,8.76173c-1.04987,3.33487 -5.93416,10.11667 -5.93416,10.11667c0,0 -4.48904,7.43639 -7.92817,7.89991c-13.29067,1.79128 -44.10361,-0.9482 -52.55956,-0.44435c-1.57595,0.0939 -5.88367,0.38571 -8.66037,-2.08468c-3.50882,-3.12175 -5.44796,-9.3416 -6.06573,-11.35746z" fill="#324972" stroke-linecap="round"/><path d="M216.29195,175.02616c0,-4.39039 -0.3114,-15.07712 -0.03289,-23.88447c0.23205,-7.33819 -1.22753,-12.75391 8.32779,-14.19544c5.34866,-0.8069 21.72449,-0.08305 31.29543,-0.18286c9.54801,-0.09957 7.46326,5.36217 7.46326,9.02041c0,4.83482 -0.31664,17.8019 0.27591,27.18114c0.78532,12.43035 -4.48868,11.44676 -7.93885,11.44676c-4.18394,0 -15.06597,0.38232 -24.0959,0.16317c-7.85897,-0.19073 -15.29475,1.10533 -15.29475,-9.54871z" fill="#efe8d5" stroke-linecap="butt"/><g fill="none" stroke-linecap="round"><path d="M228.94542,177.38317l-7.37664,-6.84016"/><path d="M221.43466,177.51728l6.70604,-7.779"/></g><g data-paper-data="{&quot;index&quot;:null}" fill="none" stroke-linecap="round"><path d="M250.94122,176.9808l7.37664,-6.84016"/><path d="M258.45198,177.11492l-6.70604,-7.779"/></g><g stroke-linecap="round"><path d="M240.66022,198.27017c-6.20772,0.20088 -5.24121,-15.28428 -5.24121,-15.28428l9.89112,-0.05677c0,0 1.55781,15.14017 -4.64991,15.34105z" fill="#ff56a8"/><path d="M232.84029,183.08734l15.32909,-0.34065" fill="none"/></g></g><g stroke-width="4"><path d="M221.12295,214.83826v-28.83122h40.32281l-2.19943,23.58918l6.04842,11.79459l-11.18041,16.38138l0.54986,13.76036l-10.44727,-13.76036l5.31528,-19.82146l-10.44727,-4.09534l-10.26399,3.93153l3.11585,20.64053l-20.71126,3.11246l8.7977,-5.40585l-5.86514,-10.81171z" fill="#302f53" stroke="#0c161b" stroke-linecap="round"/><path d="M218.79114,230.64147c-0.48533,-1.69475 -1.76061,-5.79186 -2.6502,-9.21675c-0.7412,-2.85358 -1.78012,-4.81238 0.94263,-6.23131c1.52408,-0.79426 6.54341,-1.99295 9.41919,-2.89537c2.86889,-0.90026 2.84384,1.39622 3.24824,2.80835c0.53446,1.8663 1.87239,6.90035 3.08793,10.46737c1.61097,4.72739 -0.08852,4.82376 -1.12917,5.13518c-1.26197,0.37765 -4.50197,1.50746 -7.24983,2.23793c-2.39153,0.63574 -4.49105,1.8072 -5.66879,-2.30539z" fill="#efe8d5" stroke="#866e4e" stroke-linecap="butt"/><path d="M244.06782,216.13953c0.85519,-1.54155 2.85052,-5.3404 4.64325,-8.39121c1.49368,-2.5419 2.14413,-4.6616 5.07274,-3.73966c1.63931,0.51606 6.03612,3.21766 8.70771,4.61304c2.66519,1.39203 1.02362,2.99818 0.31105,4.28265c-0.94176,1.6976 -3.55531,6.20326 -5.21805,9.58505c-2.20365,4.4819 -3.4735,3.34832 -4.42956,2.83268c-1.15939,-0.62531 -4.24931,-2.11744 -6.70885,-3.54395c-2.1406,-1.24153 -4.45354,-1.89777 -2.37828,-5.6386z" fill="#efe8d5" stroke="#866e4e" stroke-linecap="butt"/><path d="M224.2208,175.74755c0,0 0.23684,25.62717 3.29914,30.05882c2.36243,3.41882 3.94708,4.09625 4.94871,8.7977c0.93711,4.3986 -2.37662,5.81219 -8.7977,5.13199c-8.6355,-0.91479 -16.01664,6.08376 -16.86226,-8.24785c-0.53215,-9.01903 1.69571,-21.32448 4.72131,-29.69268c2.00114,-5.53474 5.17611,-9.34713 5.17611,-9.34713z" fill="#273b5e" stroke="#242343" stroke-linecap="round"/><path d="M263.63119,165.86368c0,0 7.24777,3.92708 8.12934,10.39939c1.10453,8.10924 1.99795,19.06308 0.41732,27.25975c-2.71839,14.09683 -9.11764,6.19047 -17.79853,5.9645c-6.45482,-0.16802 -9.55448,-2.00411 -8.04844,-6.24176c1.60973,-4.52942 3.26956,-4.99312 6.06006,-8.07248c3.6172,-3.99163 7.21388,-29.36626 7.21388,-29.36626z" data-paper-data="{&quot;index&quot;:null}" fill="#273b5e" stroke="#242343" stroke-linecap="round"/><path d="M199.22722,136.95287c-1.20637,-3.93658 -0.50945,-8.90114 8.726,-10.21359c4.75937,-0.67636 6.35938,5.0572 10.23334,3.76079c0.87039,-0.29127 -5.50667,-12.08682 9.28987,-19.63418c5.3559,-2.73192 23.87065,-2.38412 23.87065,-2.38412c0,0 5.65273,1.57198 7.60974,5.8763c1.82533,4.0147 1.99026,13.33294 4.3952,14.37211c3.53033,1.52545 9.20516,-7.38188 15.85445,-4.66914c2.76686,1.12881 2.1956,5.49994 1.16874,8.76173c-1.04987,3.33487 -5.93416,10.11667 -5.93416,10.11667c0,0 -4.48904,7.43639 -7.92817,7.89991c-13.29067,1.79128 -44.10361,-0.9482 -52.55956,-0.44435c-1.57595,0.0939 -5.88367,0.38571 -8.66037,-2.08468c-3.50882,-3.12175 -5.44796,-9.3416 -6.06573,-11.35746z" fill="#324972" stroke="#242343" stroke-linecap="round"/><path d="M216.29195,175.02616c0,-4.39039 -0.3114,-15.07712 -0.03289,-23.88447c0.23205,-7.33819 -1.22753,-12.75391 8.32779,-14.19544c5.34866,-0.8069 21.72449,-0.08305 31.29543,-0.18286c9.54801,-0.09957 7.46326,5.36217 7.46326,9.02041c0,4.83482 -0.31664,17.8019 0.27591,27.18114c0.78532,12.43035 -4.48868,11.44676 -7.93885,11.44676c-4.18394,0 -15.06597,0.38232 -24.0959,0.16317c-7.85897,-0.19073 -15.29475,1.10533 -15.29475,-9.54871z" fill="#efe8d5" stroke="#866e4e" stroke-linecap="butt"/><g fill="none" stroke="#152933" stroke-linecap="round"><path d="M228.94542,177.38317l-7.37664,-6.84016"/><path d="M221.43466,177.51728l6.70604,-7.779"/></g><g data-paper-data="{&quot;index&quot;:null}" fill="none" stroke="#152933" stroke-linecap="round"><path d="M250.94122,176.9808l7.37664,-6.84016"/><path d="M258.45198,177.11492l-6.70604,-7.779"/></g><g stroke-linecap="round"><path d="M240.66022,198.27017c-6.20772,0.20088 -5.24121,-15.28428 -5.24121,-15.28428l9.89112,-0.05677c0,0 1.55781,15.14017 -4.64991,15.34105z" fill="#ff56a8" stroke="#503348"/><path d="M232.84029,183.08734l15.32909,-0.34065" fill="none" stroke="#3f2121"/></g></g></g></g></svg>